<svg version="1.0" xmlns="http://www.w3.org/2000/svg"
 width="800.000000pt" height="800.000000pt" viewBox="0 0 800.000000 800.000000"
 preserveAspectRatio="xMidYMid meet">
<style>
path { fill: #000; }
@media (prefers-color-scheme: dark) { path { fill: #fff; } }
</style>
<g transform="translate(0.000000,800.000000) scale(0.100000,-0.100000)"
stroke="none">
<path d="M5382 7970 c-16 -21 -39 -34 -80 -46 -31 -9 -77 -27 -102 -40 -25
-13 -65 -31 -89 -39 -24 -8 -58 -28 -75 -44 -99 -93 -201 -199 -235 -244 -21
-29 -46 -58 -55 -66 -10 -8 -24 -28 -33 -45 -8 -16 -32 -50 -52 -76 -20 -25
-52 -74 -71 -109 -19 -34 -49 -85 -65 -114 -17 -29 -37 -68 -45 -87 -7 -19
-25 -53 -38 -74 -13 -21 -33 -64 -43 -94 -11 -31 -26 -63 -33 -71 -45 -50
-135 -281 -136 -350 0 -9 -12 -38 -25 -66 -30 -61 -31 -77 -4 -131 28 -59 81
-104 122 -104 42 0 77 -25 77 -54 0 -13 -11 -38 -25 -57 -13 -19 -32 -48 -41
-66 -16 -30 -16 -35 -1 -75 20 -52 59 -78 116 -78 44 0 111 23 111 38 0 9 68
59 162 118 27 17 59 40 71 51 12 11 47 32 77 47 30 14 89 50 132 78 118 82
211 136 259 153 24 9 60 26 79 39 19 12 61 33 93 44 32 12 68 29 82 38 13 8
63 22 112 31 48 8 110 26 138 40 69 36 355 77 470 68 175 -13 288 -35 364 -71
64 -30 83 -34 151 -34 69 0 82 3 107 24 25 22 28 31 31 103 4 91 -7 108 -80
124 -24 6 -70 21 -103 34 -98 38 -386 83 -543 84 -99 1 -387 -48 -487 -83 -38
-13 -104 -29 -145 -36 -74 -12 -112 -27 -160 -61 -14 -10 -53 -25 -87 -33 -62
-16 -173 -77 -230 -127 -17 -15 -42 -30 -55 -34 -13 -4 -44 -22 -69 -40 -26
-18 -61 -41 -78 -50 -18 -9 -41 -25 -52 -36 -20 -20 -64 -26 -74 -8 -15 23 8
59 87 140 90 91 229 219 269 246 13 10 32 28 42 40 10 13 31 30 45 38 27 14
51 35 252 228 62 60 135 126 164 147 57 44 88 70 161 134 43 38 64 48 150 70
54 14 109 26 122 26 33 0 120 57 127 83 14 55 7 86 -30 119 -20 18 -45 38 -57
45 -35 19 -145 15 -207 -8 -30 -11 -77 -27 -105 -36 -27 -8 -63 -28 -80 -43
-16 -16 -51 -38 -76 -49 -26 -10 -50 -24 -54 -30 -3 -6 -30 -29 -59 -50 -28
-21 -101 -87 -161 -147 -61 -60 -140 -133 -175 -163 -36 -29 -72 -61 -80 -71
-8 -10 -60 -57 -115 -104 -55 -48 -133 -117 -172 -154 -63 -58 -137 -102 -150
-88 -11 11 24 100 80 202 34 63 76 139 92 171 28 55 51 89 125 188 17 22 48
65 70 95 83 114 181 210 246 240 34 15 64 32 68 38 7 12 82 37 137 46 40 7
135 78 145 108 9 31 -16 87 -52 115 -20 14 -42 39 -50 55 -21 40 -72 40 -102
-2z"/>
<path d="M1805 6504 c-33 -2 -190 -13 -350 -25 -253 -18 -303 -24 -390 -49
-55 -16 -120 -34 -145 -39 -25 -6 -71 -19 -102 -31 -31 -11 -101 -25 -155 -30
-81 -9 -112 -18 -178 -50 -49 -24 -106 -43 -147 -49 -80 -11 -167 -59 -245
-132 -28 -27 -61 -49 -72 -49 -18 0 -21 -6 -21 -45 0 -35 4 -45 17 -45 9 0 37
-21 61 -47 39 -42 49 -48 86 -48 33 0 54 9 106 46 89 63 100 68 188 85 42 8
89 23 104 34 42 31 72 40 188 56 58 8 148 27 200 43 101 31 246 68 320 81 164
29 799 43 995 21 117 -12 335 -72 385 -105 19 -13 52 -29 74 -36 21 -7 55 -27
75 -45 20 -18 51 -40 69 -49 41 -21 83 -99 64 -118 -10 -10 -35 -7 -120 15
-195 50 -358 54 -787 17 -191 -16 -546 -78 -596 -104 -26 -13 -71 -31 -100
-40 -30 -10 -88 -34 -129 -54 -64 -32 -77 -42 -89 -75 -11 -30 -12 -45 -2 -77
30 -101 101 -124 223 -72 129 55 297 101 407 112 58 6 141 19 185 29 83 20
432 51 566 51 100 0 191 -16 240 -41 21 -11 89 -29 149 -40 94 -17 115 -18
138 -7 60 29 91 118 58 162 -30 40 -19 64 40 93 79 39 105 106 71 186 -12 31
-163 178 -203 201 -10 5 -36 24 -57 43 -22 18 -65 42 -95 54 -31 11 -65 26
-76 33 -32 21 -233 87 -294 96 -162 26 -536 51 -656 44z"/>
<path d="M2565 5490 c-16 -5 -89 -18 -162 -30 -146 -22 -163 -27 -216 -63 -19
-13 -64 -31 -99 -40 -59 -15 -251 -108 -263 -127 -3 -5 -29 -16 -58 -25 -28
-10 -68 -32 -87 -49 -53 -48 -111 -91 -150 -111 -19 -10 -52 -33 -73 -51 -20
-19 -41 -34 -46 -34 -7 0 -36 -24 -103 -87 -24 -22 -67 -72 -138 -156 -53 -63
-55 -115 -9 -173 37 -47 64 -63 106 -64 49 0 78 18 104 64 46 83 159 194 265
261 52 33 127 86 154 110 14 13 48 30 76 39 28 9 61 28 74 41 13 13 46 32 74
41 81 26 207 84 258 120 27 18 60 35 75 38 116 24 247 38 355 38 125 -1 127 0
173 30 61 41 77 66 73 119 -3 40 -7 47 -57 81 l-54 38 -121 -1 c-67 0 -134 -5
-151 -9z"/>
<path d="M4470 5279 c-25 -5 -56 -18 -70 -29 -14 -11 -46 -31 -72 -45 -47 -25
-88 -67 -88 -90 0 -7 -16 -32 -35 -55 -20 -24 -42 -66 -51 -98 -9 -32 -29 -86
-44 -122 -15 -36 -33 -91 -40 -123 -7 -33 -22 -70 -37 -87 -41 -49 -70 -41
-193 51 -19 14 -50 31 -69 38 -19 6 -50 23 -69 37 -19 15 -61 35 -93 45 -32
10 -81 30 -109 44 -48 24 -133 57 -239 91 -24 7 -94 17 -155 20 -89 5 -123 12
-171 33 -73 32 -138 33 -186 4 -19 -12 -61 -29 -94 -38 -57 -17 -73 -27 -163
-101 -20 -17 -53 -40 -72 -52 -34 -20 -72 -62 -133 -145 -25 -34 -85 -190
-116 -302 -40 -142 -47 -421 -17 -593 23 -128 84 -290 130 -343 20 -23 36 -46
36 -51 0 -12 179 -208 246 -269 34 -29 91 -79 128 -109 37 -30 81 -67 99 -82
18 -15 39 -30 49 -33 9 -3 23 -17 32 -30 9 -14 40 -37 69 -51 28 -15 66 -37
82 -49 58 -42 180 -94 247 -105 37 -5 95 -19 130 -31 134 -43 234 -37 493 30
183 48 298 132 391 288 31 51 64 98 74 103 28 15 87 12 140 -7 45 -16 56 -16
191 0 79 10 187 21 239 26 90 8 102 11 241 79 80 40 149 72 154 72 4 0 24 15
45 33 21 17 56 47 79 65 41 33 86 88 170 205 42 59 44 67 63 197 15 101 19
164 15 250 -8 153 -35 369 -51 400 -7 14 -30 57 -51 95 -21 39 -53 101 -72
139 -44 87 -172 267 -233 326 -68 66 -126 110 -173 132 -53 25 -142 83 -184
119 -18 16 -54 35 -81 42 -26 8 -71 27 -99 41 -78 41 -185 54 -283 35z m181
-280 c14 -10 51 -27 82 -39 30 -11 66 -29 79 -39 13 -10 46 -30 73 -45 107
-58 163 -99 234 -173 76 -80 161 -194 161 -218 0 -7 16 -36 35 -64 23 -34 42
-78 55 -132 10 -44 31 -117 46 -161 29 -88 29 -157 0 -187 -16 -15 -19 -13
-55 25 -20 23 -60 54 -87 70 -42 25 -59 29 -124 29 -65 0 -84 -5 -140 -34
-146 -75 -179 -101 -216 -175 -27 -51 -37 -85 -40 -135 -5 -60 -2 -73 33 -151
34 -75 45 -89 88 -117 75 -48 85 -59 85 -98 0 -55 -19 -61 -249 -74 -186 -10
-206 -10 -223 5 -20 19 -24 90 -8 159 14 60 -5 316 -29 395 -11 36 -27 103
-36 150 -19 105 -32 144 -59 184 -11 17 -34 87 -50 155 l-29 123 27 121 c17
75 40 147 61 188 18 36 37 83 41 105 8 44 101 150 137 157 34 6 80 -4 108 -24z
m-1602 -289 c129 -11 140 -14 317 -95 40 -18 97 -40 127 -49 31 -9 69 -27 85
-41 16 -13 54 -33 85 -45 30 -11 72 -34 92 -50 20 -16 45 -32 55 -35 10 -3 25
-17 34 -30 9 -14 34 -34 55 -45 52 -26 172 -164 211 -241 19 -37 37 -96 46
-148 9 -47 22 -105 29 -128 32 -94 -27 -99 -106 -9 l-37 41 -108 0 c-95 0
-113 -3 -144 -22 -19 -12 -51 -31 -70 -42 -70 -38 -163 -141 -203 -224 -47
-100 -50 -161 -9 -257 55 -129 152 -221 266 -254 94 -28 137 -95 82 -131 -14
-9 -75 -26 -138 -37 l-113 -20 -130 21 c-92 15 -146 30 -185 50 -30 16 -73 34
-95 41 -22 7 -53 24 -69 37 -16 13 -47 33 -69 45 -23 11 -76 51 -119 89 -43
38 -82 69 -87 69 -5 0 -27 17 -49 38 -23 20 -55 48 -72 61 -27 20 -84 83 -201
223 -17 20 -39 63 -49 95 -10 32 -30 84 -45 116 -60 129 -58 462 4 592 16 33
36 86 45 117 18 61 63 122 155 204 70 63 135 86 221 79 36 -3 121 -10 189 -15z"/>
<path d="M7135 4388 c-35 -20 -87 -82 -108 -128 -27 -60 -104 -153 -147 -178
-95 -54 -215 -65 -365 -32 -73 17 -96 26 -125 54 -76 73 -115 75 -176 9 -38
-42 -44 -54 -44 -93 0 -50 38 -135 75 -170 16 -15 44 -25 87 -30 34 -5 104
-18 153 -29 50 -11 108 -21 131 -21 52 0 102 -17 113 -39 11 -20 -3 -278 -19
-345 -6 -27 -21 -72 -35 -100 -13 -28 -31 -89 -41 -136 -9 -47 -29 -110 -44
-140 -15 -30 -33 -73 -40 -95 -7 -22 -19 -49 -27 -61 -7 -11 -24 -48 -37 -81
-13 -32 -46 -87 -74 -122 -27 -34 -64 -88 -82 -119 -46 -83 -101 -157 -177
-240 -38 -41 -72 -82 -78 -91 -43 -76 -356 -399 -422 -434 -10 -6 -36 -24 -57
-41 -22 -17 -58 -42 -81 -56 -70 -41 -150 -97 -164 -113 -7 -9 -36 -24 -64
-33 -29 -9 -68 -30 -87 -46 -54 -46 -144 -95 -208 -113 -31 -9 -80 -30 -109
-46 -32 -19 -88 -37 -150 -49 -54 -11 -132 -29 -173 -40 -100 -26 -329 -60
-411 -60 -100 0 -322 37 -392 65 -34 13 -97 30 -139 36 -58 8 -90 20 -129 45
-29 18 -74 40 -99 47 -49 15 -119 60 -178 115 -19 18 -44 38 -55 43 -10 6 -45
31 -76 55 -31 25 -76 60 -101 80 -25 19 -63 50 -85 70 -22 19 -83 71 -135 116
-52 44 -115 100 -139 124 -24 24 -47 44 -51 44 -4 0 -27 26 -51 57 -24 31 -59
70 -77 88 -18 17 -40 43 -50 57 -9 14 -50 74 -89 133 -40 60 -73 113 -73 119
0 6 -13 31 -30 56 -16 25 -35 69 -41 98 -11 48 -10 59 16 133 l28 80 -23 50
c-28 58 -43 72 -93 89 -82 26 -150 -13 -162 -93 -9 -55 -25 -72 -113 -109 -94
-41 -196 -48 -277 -19 -95 34 -132 29 -188 -23 -46 -42 -48 -46 -45 -92 3 -48
4 -50 68 -92 36 -23 83 -47 105 -54 54 -15 277 -15 344 0 65 15 94 1 117 -55
8 -19 39 -72 69 -119 30 -46 61 -97 70 -114 15 -30 115 -156 222 -281 65 -76
411 -387 586 -526 26 -21 64 -52 85 -68 34 -28 85 -63 232 -158 30 -19 73 -41
95 -48 22 -6 63 -25 90 -40 28 -15 88 -37 135 -48 47 -10 119 -30 160 -44 162
-54 206 -60 417 -65 111 -2 230 1 265 6 164 27 299 53 339 67 24 9 86 25 138
35 64 13 111 29 144 50 28 17 75 38 106 46 59 15 155 62 207 100 16 13 52 33
80 45 27 12 72 36 99 54 28 18 72 45 99 60 27 15 75 52 107 81 33 30 63 54 68
54 6 0 30 17 55 38 25 20 71 57 101 82 68 54 154 137 175 167 9 12 43 45 75
74 33 29 68 66 78 82 11 17 30 39 43 50 13 10 32 33 41 50 8 18 32 51 52 74
72 83 111 132 111 140 0 5 30 49 66 98 36 50 77 113 91 140 14 28 36 64 49 81
13 17 29 46 35 65 6 19 42 97 80 174 53 109 73 162 88 236 10 53 26 110 35
126 8 17 29 86 47 154 26 103 32 152 38 289 6 152 9 168 32 207 14 23 45 58
70 77 28 21 57 57 77 94 17 32 39 65 48 73 34 28 56 91 56 159 -1 77 -12 112
-44 134 -26 19 -84 21 -113 4z"/>
<path d="M5065 2870 c-11 -5 -43 -30 -72 -57 -68 -63 -77 -103 -40 -179 23
-46 32 -55 66 -64 46 -12 78 -3 123 37 88 81 88 81 88 118 0 44 -32 110 -63
129 -29 18 -77 26 -102 16z"/>
<path d="M4595 2582 c-45 -28 -58 -61 -53 -131 5 -72 29 -111 77 -124 48 -12
91 7 133 57 67 80 58 141 -27 188 -59 32 -89 35 -130 10z"/>
</g>
</svg>
